HIERARCHY
ROOT Hips
{
	OFFSET 0.000000 100.481300 0.000000
	CHANNELS 6 Xposition Yposition Zposition Xrotation Yrotation Zrotation
	JOINT Spine
	{
		OFFSET -0.279200 12.230698 -2.892100
		CHANNELS 3 Xrotation Yrotation Zrotation
		JOINT Spine1
		{
			OFFSET -0.325700 14.269203 -3.374200
			CHANNELS 3 Xrotation Yrotation Zrotation
			JOINT Spine2
			{
				OFFSET -0.372300 16.307602 -0.352600
				CHANNELS 3 Xrotation Yrotation Zrotation
				JOINT Neck
				{
					OFFSET -0.418800 17.814194 8.416900
					CHANNELS 3 Xrotation Yrotation Zrotation
					JOINT Head
					{
						OFFSET 0.000000 7.031097 3.806800
						CHANNELS 3 Xrotation Yrotation Zrotation
						JOINT HeadTop_End
						{
							OFFSET 0.000000 24.646606 12.978600
							CHANNELS 3 Xrotation Yrotation Zrotation
							End Site
							{
								OFFSET 0.000000 27.854965 0.000000
							}
						}
					}
				}
				JOINT LeftShoulder
				{
					OFFSET 16.952999 14.495407 -7.737500
					CHANNELS 3 Xrotation Yrotation Zrotation
					JOINT LeftArm
					{
						OFFSET 9.308998 -2.777710 0.208600
						CHANNELS 3 Xrotation Yrotation Zrotation
						JOINT LeftForeArm
						{
							OFFSET 29.972298 0.000000 0.000000
							CHANNELS 3 Xrotation Yrotation Zrotation
							JOINT LeftHand
							{
								OFFSET 26.026505 0.000000 0.000000
								CHANNELS 3 Xrotation Yrotation Zrotation
								JOINT LeftHandThumb1
								{
									OFFSET 12.240501 -7.147949 9.207150
									CHANNELS 3 Xrotation Yrotation Zrotation
									JOINT LeftHandThumb2
									{
										OFFSET 4.138618 -2.389435 2.389433
										CHANNELS 3 Xrotation Yrotation Zrotation
										JOINT LeftHandThumb3
										{
											OFFSET 2.726913 -1.574387 1.574386
											CHANNELS 3 Xrotation Yrotation Zrotation
											JOINT LeftHandThumb4
											{
												OFFSET 3.941010 -2.275345 2.275342
												CHANNELS 3 Xrotation Yrotation Zrotation
												End Site
												{
													OFFSET -0.005798 5.087799 0.009903
												}
											}
										}
									}
								}
								JOINT LeftHandIndex1
								{
									OFFSET 24.424698 -1.985611 5.953459
									CHANNELS 3 Xrotation Yrotation Zrotation
									JOINT LeftHandIndex2
									{
										OFFSET 6.426697 0.000000 0.000000
										CHANNELS 3 Xrotation Yrotation Zrotation
										JOINT LeftHandIndex3
										{
											OFFSET 5.337898 0.000000 0.000000
											CHANNELS 3 Xrotation Yrotation Zrotation
											JOINT LeftHandIndex4
											{
												OFFSET 4.409401 0.000000 0.000000
												CHANNELS 3 Xrotation Yrotation Zrotation
												End Site
												{
													OFFSET 0.000000 4.409363 0.014373
												}
											}
										}
									}
								}
								JOINT LeftHandMiddle1
								{
									OFFSET 23.810104 0.000000 0.000000
									CHANNELS 3 Xrotation Yrotation Zrotation
									JOINT LeftHandMiddle2
									{
										OFFSET 7.176498 0.000000 0.000000
										CHANNELS 3 Xrotation Yrotation Zrotation
										JOINT LeftHandMiddle3
										{
											OFFSET 6.774902 0.000000 0.000000
											CHANNELS 3 Xrotation Yrotation Zrotation
											JOINT LeftHandMiddle4
											{
												OFFSET 5.403328 0.000000 0.000000
												CHANNELS 3 Xrotation Yrotation Zrotation
												End Site
												{
													OFFSET -0.027702 5.403244 0.017414
												}
											}
										}
									}
								}
								JOINT LeftHandRing1
								{
									OFFSET 22.908401 -0.839279 -6.020567
									CHANNELS 3 Xrotation Yrotation Zrotation
									JOINT LeftHandRing2
									{
										OFFSET 6.337502 0.000000 0.000000
										CHANNELS 3 Xrotation Yrotation Zrotation
										JOINT LeftHandRing3
										{
											OFFSET 5.779297 0.000000 0.000000
											CHANNELS 3 Xrotation Yrotation Zrotation
											JOINT LeftHandRing4
											{
												OFFSET 4.965698 0.000000 0.000000
												CHANNELS 3 Xrotation Yrotation Zrotation
												End Site
												{
													OFFSET 0.000000 4.965668 0.016186
												}
											}
										}
									}
								}
								JOINT LeftHandPinky1
								{
									OFFSET 20.037003 -1.530319 -10.950146
									CHANNELS 3 Xrotation Yrotation Zrotation
									JOINT LeftHandPinky2
									{
										OFFSET 5.254700 0.000000 0.000000
										CHANNELS 3 Xrotation Yrotation Zrotation
										JOINT LeftHandPinky3
										{
											OFFSET 4.810204 0.000000 0.000000
											CHANNELS 3 Xrotation Yrotation Zrotation
											JOINT LeftHandPinky4
											{
												OFFSET 3.647202 0.000000 0.000000
												CHANNELS 3 Xrotation Yrotation Zrotation
												End Site
												{
													OFFSET 0.000000 3.647186 0.011889
												}
											}
										}
									}
								}
							}
						}
					}
				}
				JOINT RightShoulder
				{
					OFFSET -15.141001 14.495407 -7.737500
					CHANNELS 3 Xrotation Yrotation Zrotation
					JOINT RightArm
					{
						OFFSET -9.308998 -2.777710 0.208500
						CHANNELS 3 Xrotation Yrotation Zrotation
						JOINT RightForeArm
						{
							OFFSET -29.972300 0.000000 0.000000
							CHANNELS 3 Xrotation Yrotation Zrotation
							JOINT RightHand
							{
								OFFSET -26.026505 0.000000 0.000000
								CHANNELS 3 Xrotation Yrotation Zrotation
								JOINT RightHandThumb1
								{
									OFFSET -12.240601 -7.148026 9.207092
									CHANNELS 3 Xrotation Yrotation Zrotation
									JOINT RightHandThumb2
									{
										OFFSET -4.138618 -2.389435 2.389433
										CHANNELS 3 Xrotation Yrotation Zrotation
										JOINT RightHandThumb3
										{
											OFFSET -2.726974 -1.574417 1.574421
											CHANNELS 3 Xrotation Yrotation Zrotation
											JOINT RightHandThumb4
											{
												OFFSET -3.941010 -2.275345 2.275343
												CHANNELS 3 Xrotation Yrotation Zrotation
												End Site
												{
													OFFSET 0.005814 5.087799 0.009927
												}
											}
										}
									}
								}
								JOINT RightHandIndex1
								{
									OFFSET -24.424698 -1.985657 5.953444
									CHANNELS 3 Xrotation Yrotation Zrotation
									JOINT RightHandIndex2
									{
										OFFSET -6.426697 0.000000 0.000000
										CHANNELS 3 Xrotation Yrotation Zrotation
										JOINT RightHandIndex3
										{
											OFFSET -5.337898 0.000000 0.000000
											CHANNELS 3 Xrotation Yrotation Zrotation
											JOINT RightHandIndex4
											{
												OFFSET -4.409401 0.000000 0.000000
												CHANNELS 3 Xrotation Yrotation Zrotation
												End Site
												{
													OFFSET 0.000000 4.409363 0.014408
												}
											}
										}
									}
								}
								JOINT RightHandMiddle1
								{
									OFFSET -23.810097 0.000000 0.000000
									CHANNELS 3 Xrotation Yrotation Zrotation
									JOINT RightHandMiddle2
									{
										OFFSET -7.176498 0.000000 0.000000
										CHANNELS 3 Xrotation Yrotation Zrotation
										JOINT RightHandMiddle3
										{
											OFFSET -6.774902 0.000000 0.000000
											CHANNELS 3 Xrotation Yrotation Zrotation
											JOINT RightHandMiddle4
											{
												OFFSET -5.403328 0.000000 0.000000
												CHANNELS 3 Xrotation Yrotation Zrotation
												End Site
												{
													OFFSET 0.027702 5.403244 0.017457
												}
											}
										}
									}
								}
								JOINT RightHandRing1
								{
									OFFSET -22.908302 -0.839325 -6.020576
									CHANNELS 3 Xrotation Yrotation Zrotation
									JOINT RightHandRing2
									{
										OFFSET -6.337502 0.000000 0.000000
										CHANNELS 3 Xrotation Yrotation Zrotation
										JOINT RightHandRing3
										{
											OFFSET -5.779297 0.000000 0.000000
											CHANNELS 3 Xrotation Yrotation Zrotation
											JOINT RightHandRing4
											{
												OFFSET -4.965698 0.000000 0.000000
												CHANNELS 3 Xrotation Yrotation Zrotation
												End Site
												{
													OFFSET 0.000000 4.965668 0.016226
												}
											}
										}
									}
								}
								JOINT RightHandPinky1
								{
									OFFSET -20.037003 -1.530334 -10.950259
									CHANNELS 3 Xrotation Yrotation Zrotation
									JOINT RightHandPinky2
									{
										OFFSET -5.254700 0.000000 0.000000
										CHANNELS 3 Xrotation Yrotation Zrotation
										JOINT RightHandPinky3
										{
											OFFSET -4.810204 0.000000 0.000000
											CHANNELS 3 Xrotation Yrotation Zrotation
											JOINT RightHandPinky4
											{
												OFFSET -3.647202 0.000000 0.000000
												CHANNELS 3 Xrotation Yrotation Zrotation
												End Site
												{
													OFFSET 0.000000 3.647186 0.011917
												}
											}
										}
									}
								}
							}
						}
					}
				}
			}
		}
	}
	JOINT LeftUpLeg
	{
		OFFSET 15.427100 -6.655098 0.678600
		CHANNELS 3 Xrotation Yrotation Zrotation
		JOINT LeftLeg
		{
			OFFSET 4.081073 -39.591068 13.024000
			CHANNELS 3 Xrotation Yrotation Zrotation
			JOINT LeftFoot
			{
				OFFSET -4.081074 -37.707932 -15.979700
				CHANNELS 3 Xrotation Yrotation Zrotation
				JOINT LeftToeBase
				{
					OFFSET 5.346399 -15.068900 20.645000
					CHANNELS 3 Xrotation Yrotation Zrotation
					JOINT LeftToe_End
					{
						OFFSET 2.754700 0.931300 11.300900
						CHANNELS 3 Xrotation Yrotation Zrotation
						End Site
						{
							OFFSET 0.000000 11.669021 0.000000
						}
					}
				}
			}
		}
	}
	JOINT RightUpLeg
	{
		OFFSET -15.569500 -6.655098 0.678600
		CHANNELS 3 Xrotation Yrotation Zrotation
		JOINT RightLeg
		{
			OFFSET -4.081825 -39.591045 13.023800
			CHANNELS 3 Xrotation Yrotation Zrotation
			JOINT RightFoot
			{
				OFFSET 4.081824 -37.707954 -15.979600
				CHANNELS 3 Xrotation Yrotation Zrotation
				JOINT RightToeBase
				{
					OFFSET -5.346400 -15.068900 20.645000
					CHANNELS 3 Xrotation Yrotation Zrotation
					JOINT RightToe_End
					{
						OFFSET -2.754700 0.931300 11.300900
						CHANNELS 3 Xrotation Yrotation Zrotation
						End Site
						{
							OFFSET 0.000000 11.669021 0.000000
						}
					}
				}
			}
		}
	}
}
MOTION
Frames: 4
Frame Time: 0.033333
-19.071133 42.243088 63.477592 9.854804 2.082289 16.570015 3.438109 -2.092609 3.872359 7.292654 -1.267548 -1.996329 7.333373 -1.001885 -2.009894 3.286505 -0.155057 -3.469072 -0.157729 -4.307516 1.276421 0.000003 -0.000000 -0.000001 0.512140 5.609753 -11.750696 -36.994302 -26.256840 -62.818165 0.000003 -0.000007 -0.000002 19.584203 -9.114570 -1.868967 4.753103 6.010898 2.705980 6.980560 11.602044 1.186887 0.935809 3.379400 2.988493 0.000002 -0.000002 -0.000002 0.191678 1.616514 -13.523790 0.277234 1.937820 -16.281677 0.069634 0.978754 -8.138493 0.000002 0.000000 -0.000000 0.191231 1.614644 -13.507791 0.277769 1.939656 -16.297685 0.069634 0.978757 -8.138510 -0.000003 -0.000000 -0.000000 0.191678 1.616514 -13.523788 0.277237 1.937820 -16.281677 0.069628 0.978755 -8.138495 0.000000 0.000000 0.000000 1.125861 5.562194 -13.071894 0.276443 -2.118938 -16.772204 0.069632 0.978741 -8.138506 -0.000002 0.000000 -0.000000 0.241113 -5.963169 9.600907 -18.307357 6.605337 60.583635 0.000002 46.737560 -0.000024 8.057234 -3.896992 15.146501 -15.476789 -6.593321 2.343260 1.125547 -17.035646 -4.928377 -2.809152 -4.075867 -4.275785 0.000000 0.000000 0.000000 0.047380 -0.812073 6.679153 0.505524 -2.607323 21.941969 0.127473 -1.327935 10.965236 -0.000002 0.000002 -0.000003 0.047380 -0.812073 6.679153 0.505522 -2.607325 21.941967 0.127473 -1.327946 10.965232 0.000000 -0.000001 -0.000003 0.047375 -0.812076 6.679160 0.505522 -2.607318 21.941974 0.127471 -1.327936 10.965234 -0.000004 -0.000000 0.000001 0.047380 -0.812073 6.679153 0.505523 -2.607329 21.941967 0.127470 -1.327932 10.965234 -0.000001 -0.000002 0.000000 -42.400079 -8.551883 47.501346 82.163351 4.112005 2.947679 5.483745 1.888696 -3.716485 -12.421948 0.107043 -2.544613 -0.000002 -0.000001 0.000001 -25.687402 9.011510 -25.994732 110.350715 14.536509 3.348240 8.139908 -0.457272 9.089762 73.285020 3.218478 0.366719 0.000000 0.000000 0.000000 
-20.247671 43.846870 66.135765 11.879779 2.902810 18.302387 3.247370 -2.140043 3.954969 6.910031 -1.555813 -2.411459 6.963173 -1.297646 -2.421198 3.092862 -0.327637 -3.464052 -2.780660 -5.048994 1.112014 -0.000003 0.000000 0.000001 0.528455 5.519056 -11.720254 -37.486807 -28.809642 -61.098385 0.000002 -0.000010 -0.000005 18.687995 -8.775808 -2.087200 4.753104 6.010897 2.705959 6.980551 11.602026 1.186898 0.935795 3.379401 2.988505 -0.000002 0.000000 -0.000001 0.191683 1.616514 -13.523799 0.277235 1.937818 -16.281673 0.069635 0.978754 -8.138492 -0.000003 -0.000000 0.000000 0.191232 1.614646 -13.507783 0.277769 1.939658 -16.297683 0.069636 0.978756 -8.138509 0.000001 -0.000001 -0.000000 0.191683 1.616514 -13.523797 0.277234 1.937822 -16.281670 0.069630 0.978754 -8.138494 -0.000003 0.000000 -0.000000 1.125867 5.562188 -13.071905 0.276452 -2.118938 -16.772199 0.069632 0.978740 -8.138505 -0.000002 -0.000000 0.000000 0.269859 -5.763540 9.602402 -14.911305 4.055922 59.492846 0.000026 54.104923 -0.000048 3.276210 -5.488199 15.572293 -15.476783 -6.593322 2.343204 1.130263 -17.035636 -4.923135 -2.807055 -4.075760 -4.273501 -0.000000 -0.000000 0.000001 0.047386 -0.812084 6.679131 0.505521 -2.607323 21.941969 0.127471 -1.327938 10.965231 0.000001 0.000000 -0.000002 0.047386 -0.812084 6.679131 0.505523 -2.607323 21.941967 0.127474 -1.327945 10.965228 -0.000002 -0.000003 -0.000006 0.047387 -0.812082 6.679130 0.505522 -2.607321 21.941972 0.127474 -1.327938 10.965234 0.000000 0.000000 0.000001 0.047386 -0.812084 6.679131 0.505522 -2.607328 21.941964 0.127471 -1.327936 10.965231 0.000002 0.000000 -0.000001 -43.734476 -5.435049 46.789552 77.967135 3.266790 1.807481 8.265206 0.635034 -1.290348 -5.230779 0.715893 -7.993086 0.000001 0.000000 0.000001 -23.240248 7.698164 -26.332760 106.937704 14.875100 3.509615 6.570356 -0.731729 9.261294 72.539594 4.442693 2.622879 -0.000000 0.000000 0.000000 
-21.400894 45.461952 69.247864 13.847225 4.050877 19.447806 2.953199 -2.271065 4.564089 6.399782 -1.561117 -2.637168 6.457919 -1.304621 -2.643363 2.731818 -0.554599 -3.337037 -6.053246 -5.913675 0.799385 0.000000 -0.000001 -0.000001 0.545492 5.406403 -11.678115 -38.391267 -32.440827 -59.298644 0.000004 -0.000017 0.000006 18.989811 -8.058237 -1.710673 4.753100 6.010890 2.705952 6.980552 11.602032 1.186899 0.935796 3.379391 2.988483 0.000001 -0.000000 0.000001 0.191684 1.616500 -13.523797 0.277236 1.937820 -16.281677 0.069636 0.978754 -8.138492 -0.000003 -0.000000 -0.000001 0.191230 1.614619 -13.507805 0.277768 1.939657 -16.297687 0.069634 0.978758 -8.138509 0.000001 0.000001 0.000000 0.191684 1.616500 -13.523794 0.277234 1.937823 -16.281672 0.069633 0.978755 -8.138493 0.000001 -0.000000 -0.000000 1.125868 5.562178 -13.071879 0.276452 -2.118938 -16.772202 0.069634 0.978741 -8.138504 0.000001 -0.000001 -0.000001 0.292739 -5.594799 9.596832 -12.966067 1.098490 58.393698 -0.000001 58.969552 0.000016 0.468710 -6.204384 15.895898 -15.476780 -6.593319 2.343240 1.123530 -17.035759 -4.930648 -2.810042 -4.075968 -4.276776 -0.000002 0.000000 0.000000 0.047381 -0.812071 6.679150 0.505522 -2.607324 21.941967 0.127470 -1.327938 10.965228 0.000002 -0.000003 -0.000002 0.047381 -0.812070 6.679149 0.505522 -2.607327 21.941964 0.127472 -1.327944 10.965232 -0.000001 0.000002 0.000005 0.047383 -0.812071 6.679146 0.505520 -2.607324 21.941974 0.127470 -1.327935 10.965232 -0.000000 -0.000001 -0.000003 0.047381 -0.812071 6.679150 0.505522 -2.607331 21.941964 0.127471 -1.327933 10.965233 -0.000001 0.000001 0.000002 -44.738446 -3.133312 45.906753 73.876958 2.314952 0.715504 10.845476 -0.358183 1.068205 -5.928678 1.024983 -9.437727 0.000002 0.000001 0.000001 -20.550788 6.320081 -24.707046 103.081918 15.953425 3.933142 4.699903 -1.159940 9.733715 70.656354 6.279687 7.294978 0.000000 -0.000001 -0.000000 
-22.676996 46.596886 72.494751 15.709613 4.984439 20.292733 2.652418 -2.407450 5.234133 5.882901 -1.457824 -2.795645 5.941267 -1.207448 -2.798905 2.499671 -0.777296 -3.162304 -9.364225 -6.746417 0.585643 -0.000002 0.000000 0.000000 0.552904 5.347864 -11.644830 -39.771290 -36.018439 -57.446460 -0.000002 -0.000012 -0.000011 19.925132 -7.689609 -1.156102 4.753116 6.010899 2.705965 6.980546 11.602038 1.186901 0.935811 3.379401 2.988488 0.000001 -0.000000 0.000000 0.191680 1.616509 -13.523788 0.277234 1.937819 -16.281675 0.069636 0.978756 -8.138492 -0.000000 -0.000001 -0.000001 0.191233 1.614641 -13.507795 0.277768 1.939657 -16.297689 0.069634 0.978757 -8.138509 0.000002 -0.000000 -0.000001 0.191680 1.616509 -13.523792 0.277233 1.937821 -16.281672 0.069629 0.978757 -8.138493 -0.000002 -0.000000 -0.000000 1.125862 5.562198 -13.071876 0.276454 -2.118940 -16.772199 0.069632 0.978743 -8.138504 -0.000000 0.000000 0.000000 0.321821 -5.382373 9.529620 -12.615992 -1.393709 56.902733 0.000014 61.768481 0.000002 -0.104872 -6.116212 15.536237 -15.476787 -6.593319 2.343245 1.104041 -17.035918 -4.952262 -2.818713 -4.076464 -4.286067 -0.000001 0.000000 -0.000000 0.047385 -0.812072 6.679159 0.505524 -2.607320 21.941966 0.127474 -1.327936 10.965234 0.000001 -0.000001 -0.000000 0.047386 -0.812072 6.679159 0.505523 -2.607325 21.941967 0.127474 -1.327949 10.965228 0.000000 -0.000001 0.000002 0.047384 -0.812072 6.679160 0.505523 -2.607317 21.941972 0.127474 -1.327936 10.965230 0.000002 0.000000 0.000004 0.047385 -0.812072 6.679160 0.505524 -2.607330 21.941966 0.127473 -1.327935 10.965229 0.000003 0.000000 -0.000000 -45.093937 -1.026287 45.158175 70.341461 1.540934 0.059305 12.089098 -0.894968 2.538315 -6.443843 1.192526 -10.070988 -0.000003 0.000000 -0.000001 -17.731390 4.620866 -21.734316 99.718795 15.779725 3.759175 2.270382 -1.371705 9.346378 67.980921 7.754422 12.198729 0.000001 -0.000002 -0.000000 
